<svg width="76" height="31" viewBox="0 0 76 31" fill="none" xmlns="http://www.w3.org/2000/svg">
<path d="M1 7.96C21.0764 8.16325 27.9498 13.4144 34 30M1 7.96L5.67257 16.08M1 7.96L10.0531 1" stroke="#3B3A3A"/>
<path d="M37.28 16.024H42.144V17.32H37.28V16.024ZM47.7419 17.992L47.7579 17.912C48.2272 17.944 48.6592 18.008 49.0539 18.104C49.4592 18.2 49.8059 18.3493 50.0939 18.552C50.3925 18.7547 50.6219 19.0213 50.7819 19.352C50.9525 19.6827 51.0379 20.088 51.0379 20.568C51.0379 21.1333 50.8885 21.64 50.5899 22.088C50.2912 22.5467 49.8752 22.9093 49.3419 23.176C48.8085 23.4427 48.1845 23.576 47.4699 23.576C46.7872 23.576 46.1739 23.4373 45.6299 23.16C45.0965 22.8933 44.6805 22.5253 44.3819 22.056C44.0939 21.5867 43.9712 21.064 44.0139 20.488H45.4219C45.4219 20.8187 45.5019 21.112 45.6619 21.368C45.8325 21.6347 46.0672 21.8427 46.3659 21.992C46.6752 22.1413 47.0432 22.216 47.4699 22.216C48.0885 22.216 48.5739 22.056 48.9259 21.736C49.2885 21.416 49.4699 20.9787 49.4699 20.424C49.4699 19.88 49.2725 19.4587 48.8779 19.16C48.4832 18.8507 47.9339 18.696 47.2299 18.696H46.1899V17.384H47.2299C47.6992 17.384 48.0885 17.32 48.3979 17.192C48.7072 17.064 48.9365 16.8827 49.0859 16.648C49.2352 16.4027 49.3099 16.1147 49.3099 15.784C49.3099 15.3147 49.1552 14.936 48.8459 14.648C48.5472 14.36 48.0832 14.216 47.4539 14.216C46.8992 14.216 46.4459 14.3653 46.0939 14.664C45.7419 14.952 45.5605 15.3307 45.5499 15.8H44.1579C44.1152 15.3733 44.1739 14.984 44.3339 14.632C44.4939 14.2693 44.7285 13.9547 45.0379 13.688C45.3472 13.4107 45.7099 13.2027 46.1259 13.064C46.5419 12.9147 46.9845 12.84 47.4539 12.84C48.1472 12.84 48.7499 12.9627 49.2619 13.208C49.7739 13.4533 50.1685 13.7893 50.4459 14.216C50.7232 14.6427 50.8619 15.128 50.8619 15.672C50.8619 16.12 50.7819 16.4933 50.6219 16.792C50.4725 17.0907 50.2592 17.3253 49.9819 17.496C49.7045 17.6667 49.3739 17.7893 48.9899 17.864C48.6059 17.9387 48.1899 17.9813 47.7419 17.992ZM56.6974 21.176C55.9187 21.176 55.204 21.0107 54.5534 20.68C53.9027 20.3493 53.3854 19.8747 53.0014 19.256C52.6174 18.6373 52.4254 17.896 52.4254 17.032C52.4254 16.1573 52.6174 15.4107 53.0014 14.792C53.3854 14.1627 53.9027 13.6827 54.5534 13.352C55.204 13.0213 55.9187 12.856 56.6974 12.856C57.476 12.856 58.1854 13.0213 58.8254 13.352C59.4654 13.6827 59.9774 14.1627 60.3614 14.792C60.7454 15.4107 60.9374 16.1573 60.9374 17.032C60.9374 17.896 60.7454 18.6373 60.3614 19.256C59.9774 19.8747 59.4654 20.3493 58.8254 20.68C58.1854 21.0107 57.476 21.176 56.6974 21.176ZM56.6974 19.832C57.1667 19.832 57.604 19.7253 58.0094 19.512C58.4254 19.288 58.7614 18.968 59.0174 18.552C59.2734 18.1253 59.4014 17.6187 59.4014 17.032C59.4014 16.4347 59.2734 15.928 59.0174 15.512C58.7614 15.0853 58.4254 14.76 58.0094 14.536C57.604 14.3013 57.1667 14.184 56.6974 14.184C56.228 14.184 55.78 14.296 55.3534 14.52C54.9374 14.744 54.6014 15.0693 54.3454 15.496C54.0894 15.912 53.9614 16.424 53.9614 17.032C53.9614 17.6187 54.0894 18.1253 54.3454 18.552C54.6014 18.968 54.9374 19.288 55.3534 19.512C55.7694 19.7253 56.2174 19.832 56.6974 19.832ZM64.902 15.64C64.4007 15.64 63.958 15.5333 63.574 15.32C63.2007 15.096 62.9073 14.7867 62.694 14.392C62.4913 13.9973 62.39 13.544 62.39 13.032C62.39 12.2427 62.6193 11.6133 63.078 11.144C63.5473 10.664 64.1553 10.424 64.902 10.424C65.638 10.424 66.2353 10.664 66.694 11.144C67.1633 11.6133 67.398 12.2427 67.398 13.032C67.398 13.544 67.2913 13.9973 67.078 14.392C66.8753 14.7867 66.582 15.096 66.198 15.32C65.8247 15.5333 65.3927 15.64 64.902 15.64ZM64.902 14.408C65.2433 14.408 65.526 14.2853 65.75 14.04C65.974 13.784 66.086 13.448 66.086 13.032C66.086 12.6053 65.974 12.2693 65.75 12.024C65.526 11.768 65.2433 11.64 64.902 11.64C64.5607 11.64 64.278 11.768 64.054 12.024C63.83 12.2693 63.718 12.6053 63.718 13.032C63.718 13.448 63.83 13.784 64.054 14.04C64.278 14.2853 64.5607 14.408 64.902 14.408ZM71.926 21.176C71.19 21.176 70.5873 20.936 70.118 20.456C69.6487 19.976 69.414 19.3467 69.414 18.568C69.414 17.7893 69.6487 17.16 70.118 16.68C70.5873 16.1893 71.19 15.944 71.926 15.944C72.6727 15.944 73.2753 16.1893 73.734 16.68C74.1927 17.16 74.422 17.7893 74.422 18.568C74.422 19.3467 74.1927 19.976 73.734 20.456C73.2753 20.936 72.6727 21.176 71.926 21.176ZM71.926 19.96C72.2673 19.96 72.55 19.832 72.774 19.576C72.998 19.32 73.11 18.984 73.11 18.568C73.11 18.1413 72.998 17.8053 72.774 17.56C72.55 17.304 72.2673 17.176 71.926 17.176C71.5847 17.176 71.302 17.304 71.078 17.56C70.854 17.8053 70.742 18.1413 70.742 18.568C70.742 18.984 70.854 19.32 71.078 19.576C71.302 19.832 71.5847 19.96 71.926 19.96ZM70.918 10.024L71.782 10.504L65.67 21.544L64.838 21.032L70.918 10.024Z" fill="#222222"/>
</svg>
