<svg width="111" height="111" viewBox="0 0 111 111" fill="none" xmlns="http://www.w3.org/2000/svg">
<path d="M97.5 0L110.5 13L13 110.5L0 97.5L97.5 0ZM22.75 3.25C33.54 3.25 42.25 11.96 42.25 22.75C42.25 33.54 33.54 42.25 22.75 42.25C11.96 42.25 3.25 33.54 3.25 22.75C3.25 11.96 11.96 3.25 22.75 3.25ZM87.75 68.25C98.54 68.25 107.25 76.96 107.25 87.75C107.25 98.54 98.54 107.25 87.75 107.25C76.96 107.25 68.25 98.54 68.25 87.75C68.25 76.96 76.96 68.25 87.75 68.25ZM22.75 16.25C19.175 16.25 16.25 19.175 16.25 22.75C16.25 26.325 19.175 29.25 22.75 29.25C26.325 29.25 29.25 26.325 29.25 22.75C29.25 19.175 26.325 16.25 22.75 16.25ZM87.75 81.25C84.175 81.25 81.25 84.175 81.25 87.75C81.25 91.325 84.175 94.25 87.75 94.25C91.325 94.25 94.25 91.325 94.25 87.75C94.25 84.175 91.325 81.25 87.75 81.25Z" fill="#FF9747"/>
</svg>
