<svg width="20" height="20" viewBox="0 0 20 20" fill="none" xmlns="http://www.w3.org/2000/svg">
<path d="M13.7308 2.50335C13.87 2.51585 13.9308 2.68585 13.8308 2.78502L6.89748 9.71835C6.81915 9.79673 6.76307 9.89451 6.73498 10.0017L5.90164 13.1934C5.87413 13.2988 5.87469 13.4097 5.90325 13.5149C5.93182 13.6201 5.98739 13.716 6.06447 13.793C6.14155 13.8701 6.23744 13.9257 6.34264 13.9542C6.44783 13.9828 6.55867 13.9834 6.66414 13.9559L9.85498 13.1225C9.96224 13.0942 10.06 13.0378 10.1383 12.9592L17.17 5.92752C17.192 5.90494 17.22 5.88913 17.2507 5.88196C17.2814 5.8748 17.3135 5.87659 17.3432 5.88711C17.373 5.89763 17.399 5.91645 17.4184 5.94133C17.4378 5.96621 17.4496 5.99613 17.4525 6.02752C17.7452 8.81887 17.7284 11.634 17.4025 14.4217C17.2166 16.0092 15.9408 17.255 14.3591 17.4325C11.4622 17.7535 8.53861 17.7535 5.64164 17.4325C4.05914 17.255 2.78331 16.0092 2.59748 14.4217C2.25413 11.4842 2.25413 8.51669 2.59748 5.57919C2.78331 3.99086 4.05914 2.74502 5.64164 2.56836C8.32874 2.2705 11.0393 2.24872 13.7308 2.50335Z" fill="black"/>
<path d="M14.8525 3.53081C14.8719 3.51141 14.8949 3.49602 14.9202 3.48551C14.9455 3.47501 14.9726 3.4696 15 3.4696C15.0274 3.4696 15.0546 3.47501 15.0799 3.48551C15.1052 3.49602 15.1282 3.51141 15.1475 3.53081L16.3259 4.70998C16.3648 4.74903 16.3866 4.80192 16.3866 4.85706C16.3866 4.9122 16.3648 4.96509 16.3259 5.00414L9.41502 11.9166C9.38874 11.9428 9.35595 11.9615 9.32002 11.9708L7.72502 12.3875C7.68986 12.3966 7.65292 12.3965 7.61785 12.3869C7.58279 12.3774 7.55082 12.3589 7.52513 12.3332C7.49944 12.3075 7.48091 12.2755 7.47139 12.2405C7.46187 12.2054 7.46169 12.1685 7.47085 12.1333L7.88752 10.5383C7.8968 10.5024 7.91549 10.4696 7.94169 10.4433L14.8525 3.53081Z" fill="black"/>
</svg>
