<svg width="21" height="17" viewBox="0 0 21 17" fill="none" xmlns="http://www.w3.org/2000/svg">
<path fill-rule="evenodd" clip-rule="evenodd" d="M19.5001 15C19.755 15.0003 20.0001 15.0979 20.1855 15.2728C20.3708 15.4478 20.4823 15.687 20.4973 15.9414C20.5122 16.1958 20.4294 16.4464 20.2658 16.6418C20.1023 16.8373 19.8702 16.9629 19.6171 16.993L19.5001 17H1.50011C1.24523 16.9997 1.00008 16.9021 0.814745 16.7272C0.629408 16.5522 0.517878 16.313 0.502941 16.0586C0.488004 15.8042 0.570787 15.5536 0.734378 15.3582C0.897968 15.1627 1.13002 15.0371 1.38311 15.007L1.50011 15H19.5001ZM17.5001 1.00268e-07C18.0047 -0.000159579 18.4907 0.190406 18.8607 0.533497C19.2306 0.876588 19.4573 1.34684 19.4951 1.85L19.5001 2V12C19.5003 12.5046 19.3097 12.9906 18.9666 13.3605C18.6235 13.7305 18.1533 13.9572 17.6501 13.995L17.5001 14H3.50011C2.99554 14.0002 2.50955 13.8096 2.13956 13.4665C1.76958 13.1234 1.54296 12.6532 1.50511 12.15L1.50011 12V2C1.49995 1.49542 1.69052 1.00943 2.03361 0.639452C2.3767 0.269471 2.84696 0.0428434 3.35011 0.00500021L3.50011 1.00268e-07H17.5001ZM17.5001 2H3.50011V12H17.5001V2Z" fill="#D00505"/>
</svg>
