<svg width="18" height="18" viewBox="0 0 18 18" fill="none" xmlns="http://www.w3.org/2000/svg">
<g clip-path="url(#clip0_1539_317)">
<path d="M3.12501 5.74991L6.00001 6.57991L9.16001 4.28491L4.62501 4.41491C4.58053 4.41688 4.53737 4.43068 4.50001 4.45491L3.06501 5.27991C3.02038 5.30464 2.98419 5.3422 2.96112 5.38772C2.93806 5.43324 2.92918 5.48464 2.93565 5.53526C2.94211 5.58588 2.96361 5.63339 2.99737 5.67166C3.03113 5.70993 3.07559 5.73719 3.12501 5.74991Z" fill="#AFD1FE"/>
<path d="M17.2599 3.18005L14.1099 2.50005C13.845 2.44254 13.5708 2.44269 13.3059 2.50049C13.0411 2.5583 12.7918 2.6724 12.5749 2.83505L3.0599 9.75005L0.774899 9.65005C0.644016 9.6456 0.515043 9.68238 0.406189 9.75519C0.297335 9.82799 0.214101 9.93315 0.16824 10.0558C0.122379 10.1785 0.116207 10.3125 0.150597 10.4388C0.184986 10.5652 0.2582 10.6775 0.359899 10.7601L2.5849 12.5251C2.62153 12.5546 2.66513 12.5743 2.71153 12.5821C2.75792 12.59 2.80557 12.5859 2.8499 12.5701C3.4849 12.3251 5.8499 11.0701 8.6449 9.53505L9.2049 15.2901C9.20965 15.3399 9.22792 15.3875 9.25774 15.4277C9.28755 15.4679 9.32779 15.4993 9.37409 15.5183C9.4204 15.5373 9.47103 15.5434 9.52051 15.5357C9.57 15.5281 9.61646 15.5071 9.6549 15.4751L10.9049 14.4351C10.9733 14.3777 11.0194 14.298 11.0349 14.2101L12.2199 7.56505C14.2199 6.45505 16.1299 5.38005 17.4749 4.62005C17.6145 4.5441 17.7273 4.42708 17.7982 4.28484C17.869 4.14261 17.8944 3.98203 17.871 3.82487C17.8475 3.6677 17.7763 3.52155 17.667 3.40621C17.5577 3.29087 17.4156 3.21192 17.2599 3.18005Z" fill="#AFD1FE"/>
</g>
<defs>
<clipPath id="clip0_1539_317">
<rect width="18" height="18" fill="white"/>
</clipPath>
</defs>
</svg>
