<svg width="25" height="24" viewBox="0 0 25 24" fill="none" xmlns="http://www.w3.org/2000/svg">
<path d="M16.5 22C14.8333 22 13.4167 21.4167 12.25 20.25C11.0833 19.0833 10.5 17.6667 10.5 16C10.5 14.3333 11.0833 12.9167 12.25 11.75C13.4167 10.5833 14.8333 10 16.5 10C18.1667 10 19.5833 10.5833 20.75 11.75C21.9167 12.9167 22.5 14.3333 22.5 16C22.5 17.6667 21.9167 19.0833 20.75 20.25C19.5833 21.4167 18.1667 22 16.5 22ZM16.5 20C17.6 20 18.5417 19.6083 19.325 18.825C20.1083 18.0417 20.5 17.1 20.5 16C20.5 14.9 20.1083 13.9583 19.325 13.175C18.5417 12.3917 17.6 12 16.5 12C15.4 12 14.4583 12.3917 13.675 13.175C12.8917 13.9583 12.5 14.9 12.5 16C12.5 17.1 12.8917 18.0417 13.675 18.825C14.4583 19.6083 15.4 20 16.5 20ZM4.5 20C3.95 20 3.47933 19.8043 3.088 19.413C2.69667 19.0217 2.50067 18.5507 2.5 18V10.4C2.5 10.2667 2.51267 10.1333 2.538 10C2.56333 9.86667 2.60067 9.73333 2.65 9.6L4.65 5H4.5C4.21667 5 3.97933 4.904 3.788 4.712C3.59667 4.52 3.50067 4.28267 3.5 4V3C3.5 2.71667 3.596 2.47933 3.788 2.288C3.98 2.09667 4.21733 2.00067 4.5 2H11.5C11.7833 2 12.021 2.096 12.213 2.288C12.405 2.48 12.5007 2.71733 12.5 3V4C12.5 4.28333 12.404 4.521 12.212 4.713C12.02 4.905 11.7827 5.00067 11.5 5H11.35L13 8.8C12.6833 8.96667 12.3833 9.14167 12.1 9.325C11.8167 9.50833 11.55 9.71667 11.3 9.95L9.2 5H6.8L4.5 10.4V18H8.75C8.83333 18.35 8.94567 18.696 9.087 19.038C9.22833 19.38 9.39933 19.7007 9.6 20H4.5ZM16.5 9C15.8 9 15.2083 8.75833 14.725 8.275C14.2417 7.79167 14 7.2 14 6.5C14 5.8 14.2417 5.20833 14.725 4.725C15.2083 4.24167 15.8 4 16.5 4V9ZM16.5 9C16.5 8.3 16.7417 7.70833 17.225 7.225C17.7083 6.74167 18.3 6.5 19 6.5C19.7 6.5 20.2917 6.74167 20.775 7.225C21.2583 7.70833 21.5 8.3 21.5 9H16.5Z" fill="#5FDC7C"/>
</svg>
