<svg width="34" height="34" viewBox="0 0 34 34" fill="none" xmlns="http://www.w3.org/2000/svg">
<path d="M16.9999 32.4166C25.5143 32.4166 32.4166 25.5143 32.4166 16.9999C32.4166 8.48553 25.5143 1.58325 16.9999 1.58325C8.48553 1.58325 1.58325 8.48553 1.58325 16.9999C1.58325 25.5143 8.48553 32.4166 16.9999 32.4166Z" stroke="#777573" stroke-width="2" stroke-linecap="round" stroke-linejoin="round"/>
<path d="M13.0832 12.8333C13.0832 13.4316 12.5981 13.9167 11.9998 13.9167C11.4015 13.9167 10.9165 13.4316 10.9165 12.8333C10.9165 12.235 11.4015 11.75 11.9998 11.75C12.5981 11.75 13.0832 12.235 13.0832 12.8333Z" fill="white" stroke="#777573" stroke-width="2"/>
<path d="M23.0832 12.8333C23.0832 13.4316 22.5981 13.9167 21.9998 13.9167C21.4015 13.9167 20.9165 13.4316 20.9165 12.8333C20.9165 12.235 21.4015 11.75 21.9998 11.75C22.5981 11.75 23.0832 12.235 23.0832 12.8333Z" fill="white" stroke="#777573" stroke-width="2"/>
<path d="M22.7732 20.75C22.1881 21.7634 21.3465 22.6049 20.3331 23.19C19.3197 23.775 18.1701 24.083 16.9999 24.083C15.8297 24.083 14.6801 23.775 13.6667 23.19C12.6533 22.6049 11.8117 21.7634 11.2266 20.75" stroke="#777573" stroke-width="2" stroke-linecap="round" stroke-linejoin="round"/>
</svg>
