<svg width="176" height="167" viewBox="0 0 176 167" fill="none" xmlns="http://www.w3.org/2000/svg">
<path d="M175.833 17.5V2.5L160.833 0.833333C160 0.833333 155 0 146.667 0C112.5 0 87.5 10 73.3333 27.5C62.5 20.8333 47.5 16.6667 30 16.6667C21.6667 16.6667 15.8333 17.5 15.8333 17.5L0 20L0.833334 34.1667C1.66667 59.1667 14.1667 106.667 57.5 106.667H59.1667V135C27.5 139.167 0.833334 150 0.833334 150V166.667H167.5V150C167.5 150 140.833 139.167 109.167 135V108.333C161.667 107.5 175.833 48.3333 175.833 17.5ZM84.1667 133.333H75.8333V86.6667C75.8333 86.6667 74.1667 58.3333 50.8333 58.3333C50.8333 58.3333 63.3333 65 66.6667 89.1667C63.3333 90 60 90 57.5 90C19.1667 90 17.5 34.1667 17.5 34.1667C17.5 34.1667 22.5 33.3333 30 33.3333C45.8333 33.3333 71.6667 36.6667 79.1667 59.1667C83.3333 21.6667 125.833 16.6667 146.667 16.6667C154.167 16.6667 159.167 17.5 159.167 17.5C159.167 17.5 159.167 92.5 106.667 92.5H100.833C100.833 75.8333 117.5 50.8333 117.5 50.8333C92.5 59.1667 92.5 91.6667 92.5 91.6667V133.333H84.1667Z" fill="#0FA958"/>
</svg>
