<svg width="26" height="26" viewBox="0 0 26 26" fill="none" xmlns="http://www.w3.org/2000/svg">
<path fill-rule="evenodd" clip-rule="evenodd" d="M25.5 13C25.5 6.09625 19.9037 0.5 13 0.5C6.09625 0.5 0.5 6.09625 0.5 13C0.5 19.9037 6.09625 25.5 13 25.5C19.9037 25.5 25.5 19.9037 25.5 13ZM13.285 6.75C9.88875 6.75 7.575 9.4925 7.575 13C7.575 16.5075 9.89 19.25 13.2837 19.25C14.5025 19.25 15.5975 18.9112 16.49 18.25C17.3787 17.59 17.9963 16.6625 18.35 15.595C18.4015 15.4391 18.4219 15.2745 18.4098 15.1107C18.3978 14.9469 18.3535 14.7871 18.2797 14.6403C18.2059 14.4936 18.1039 14.3629 17.9796 14.2556C17.8552 14.1483 17.7109 14.0665 17.555 14.015C17.3991 13.9635 17.2345 13.9431 17.0707 13.9552C16.9069 13.9672 16.7471 14.0114 16.6003 14.0853C16.4536 14.1591 16.3229 14.2611 16.2156 14.3854C16.1083 14.5098 16.0265 14.6541 15.975 14.81C15.7625 15.46 15.42 15.93 15 16.2412C14.5862 16.5487 14.0262 16.75 13.2837 16.75C11.5162 16.75 10.075 15.385 10.075 13C10.075 10.615 11.5162 9.25 13.2837 9.25C14.0262 9.25 14.5862 9.45125 15.0012 9.75875C15.42 10.07 15.7612 10.5412 15.9762 11.19C16.0803 11.5048 16.3052 11.7653 16.6014 11.9143C16.8976 12.0633 17.2408 12.0885 17.5556 11.9844C17.8704 11.8803 18.1309 11.6554 18.2799 11.3592C18.4289 11.063 18.4541 10.7198 18.35 10.405C17.9963 9.3375 17.3787 8.41 16.49 7.75125C15.5975 7.08875 14.5037 6.75 13.285 6.75Z" fill="#282828"/>
</svg>
