<svg xmlns="http://www.w3.org/2000/svg" xmlns:xlink="http://www.w3.org/1999/xlink" width="632" zoomAndPan="magnify" viewBox="0 0 474 439.499982" height="586" preserveAspectRatio="xMidYMid meet" version="1.0"><defs><clipPath id="72eb1c29b0"><path d="M 14 0 L 237 0 L 237 439 L 14 439 Z M 14 0 " clip-rule="nonzero"/></clipPath><clipPath id="ac110a5465"><path d="M 1 31 L 227 31 L 227 439 L 1 439 Z M 1 31 " clip-rule="nonzero"/></clipPath><clipPath id="b4d9911488"><path d="M 0.597656 30 L 230 30 L 230 439 L 0.597656 439 Z M 0.597656 30 " clip-rule="nonzero"/></clipPath><clipPath id="d2d15e6f2b"><path d="M 262 0.804688 L 443.792969 0.804688 L 443.792969 439 L 262 439 Z M 262 0.804688 " clip-rule="nonzero"/></clipPath><clipPath id="bc1564ab36"><path d="M 270 27 L 409 27 L 409 439 L 270 439 Z M 270 27 " clip-rule="nonzero"/></clipPath><clipPath id="b8de01ebb6"><path d="M 255 26 L 410 26 L 410 439 L 255 439 Z M 255 26 " clip-rule="nonzero"/></clipPath><clipPath id="76b258aa61"><path d="M 297.507812 53.246094 L 473.410156 53.246094 L 473.410156 180.210938 L 297.507812 180.210938 Z M 297.507812 53.246094 " clip-rule="nonzero"/></clipPath></defs><g clip-path="url(#72eb1c29b0)"><path fill="#100f0d" d="M 218.25 574.027344 L 236.019531 601.273438 L 224.46875 618.449219 L 217.957031 615.195312 L 208.8125 635.699219 C 207.707031 638.179688 205.246094 639.777344 202.53125 639.777344 L 171.457031 639.777344 C 176.195312 630.890625 194.855469 627.039062 194.855469 627.039062 L 196.628906 611.046875 Z M 106.898438 634.367188 C 106.898438 642.8125 103.339844 660.796875 103.339844 660.796875 L 76.242188 654.582031 L 77.800781 650.582031 L 15.929688 641.238281 C 14.566406 641.035156 14.324219 639.144531 15.601562 638.636719 C 26.386719 634.34375 43.59375 633.480469 43.59375 633.480469 L 67.804688 622.59375 C 67.804688 622.59375 106.898438 625.929688 106.898438 634.367188 Z M 212.328125 40.519531 C 225.210938 34.148438 230.539062 7.9375 228.613281 6.460938 C 226.6875 4.976562 221.652344 8.386719 221.652344 8.386719 C 221.953125 2.609375 221.359375 0.976562 218.25 2.164062 C 215.140625 3.347656 210.996094 7.644531 210.996094 7.644531 C 210.996094 7.644531 211.144531 -0.945312 207.4375 0.0898438 C 203.742188 1.125 193.226562 7.9375 193.226562 7.9375 C 193.226562 7.9375 184.632812 6.160156 174.863281 4.386719 C 165.089844 2.609375 150.28125 3.347656 146.136719 28.816406 C 141.992188 54.285156 161.09375 63.316406 161.09375 63.316406 C 161.09375 63.316406 199.441406 46.882812 212.328125 40.519531 " fill-opacity="1" fill-rule="nonzero"/></g><g clip-path="url(#ac110a5465)"><path fill="#ffffff" d="M 12.425781 211.835938 L 12.425781 248.5625 L 7.390625 248.5625 L 7.390625 286.765625 L 70.355469 286.628906 C 70.203125 286.671875 70.046875 286.71875 69.914062 286.765625 C 62.660156 289.425781 82.019531 305.71875 101.421875 305.71875 C 114.902344 305.71875 125.367188 302.648438 130.5 300.769531 C 118.917969 340.644531 103.136719 395.625 96.234375 422.695312 C 84.6875 468.003906 105.117188 481.335938 105.117188 481.335938 L 67.804688 622.59375 L 110.453125 638.589844 L 145.988281 536.421875 L 196.628906 611.046875 L 223.285156 571.066406 C 194.855469 499.101562 170.867188 469.785156 170.867188 469.785156 C 170.867188 469.785156 192.1875 413.808594 214.398438 354.285156 C 236.609375 294.761719 222.394531 253.890625 222.394531 253.890625 L 144.210938 253.890625 C 144.210938 253.890625 138.792969 272.261719 131.476562 297.429688 L 112.226562 282.765625 L 109.636719 286.765625 C 109.636719 286.765625 108.558594 286.675781 106.765625 286.550781 L 109.636719 286.542969 L 157.835938 211.835938 L 149.546875 211.835938 L 148.0625 193.476562 L 143.617188 193.476562 L 156.351562 153.789062 L 161.980469 153.789062 L 165.921875 115.386719 L 190.710938 99.746094 L 190.710938 83.753906 L 202.1875 85.492188 C 209.042969 86.53125 215.234375 81.289062 215.347656 74.359375 L 216.03125 31.632812 C 210.105469 43.328125 181.152344 34.636719 178.5625 44.363281 C 176.046875 53.84375 173.234375 55.175781 173.234375 55.175781 C 173.234375 55.175781 163.460938 42.886719 158.578125 45.550781 C 155.363281 47.296875 157.332031 55.957031 159.0625 61.691406 L 23.679688 61.691406 C 23.679688 61.691406 19.238281 78.273438 23.679688 91.304688 L 26.640625 91.304688 C 26.640625 91.304688 25.75 96.933594 25.75 107.589844 C 25.75 118.253906 30.785156 122.398438 30.785156 122.398438 L 30.785156 128.027344 C 30.785156 128.027344 25.75 129.507812 24.863281 133.0625 C 23.972656 136.613281 24.863281 154.679688 24.863281 154.679688 L 18.050781 154.679688 C 18.050781 154.679688 6.125 173.761719 2.910156 186.996094 C -0.382812 200.585938 1.761719 216.578125 1.761719 216.578125 C 1.761719 216.578125 10.058594 211.835938 12.425781 211.835938 " fill-opacity="1" fill-rule="nonzero"/></g><path fill="#d7daff" d="M 112.621094 286.765625 L 139.769531 308.976562 L 201.625 253.113281 L 222.953125 253 L 228.613281 215.6875 C 246.382812 189.03125 259.710938 146.390625 238.386719 126.84375 C 217.066406 107.296875 194.855469 86.863281 194.855469 86.863281 L 164.828125 106.300781 L 165.589844 117.96875 L 161.980469 153.789062 L 156.351562 153.789062 L 143.621094 193.476562 L 148.0625 193.476562 L 149.546875 211.835938 L 157.835938 211.835938 L 110.746094 284.691406 L 112.621094 286.765625 " fill-opacity="1" fill-rule="nonzero"/><g clip-path="url(#b4d9911488)"><path fill="#100f0d" d="M 189.851562 47.851562 C 193.292969 44.210938 199.644531 45.394531 199.707031 45.410156 C 200.117188 45.488281 200.515625 45.222656 200.59375 44.804688 C 200.679688 44.394531 200.410156 43.996094 199.996094 43.917969 C 199.707031 43.859375 192.761719 42.546875 188.75 46.804688 C 188.457031 47.109375 188.472656 47.59375 188.78125 47.882812 C 188.925781 48.019531 189.117188 48.085938 189.300781 48.085938 C 189.5 48.085938 189.707031 48.007812 189.851562 47.851562 Z M 123.453125 95.882812 C 123.464844 95.882812 123.472656 95.875 123.484375 95.875 C 123.652344 95.875 123.804688 95.945312 123.929688 96.039062 L 126.484375 96.878906 L 130.175781 90.289062 L 106.578125 90.289062 Z M 2.386719 215.351562 C 4.761719 214.042969 10.359375 211.074219 12.425781 211.074219 C 12.847656 211.074219 13.183594 211.417969 13.183594 211.835938 L 13.183594 248.5625 C 13.183594 248.984375 12.847656 249.324219 12.425781 249.324219 L 8.15625 249.324219 L 8.15625 286 L 109.222656 285.78125 L 110.601562 283.644531 C 110.621094 283.554688 110.648438 283.464844 110.699219 283.386719 L 141.027344 236.484375 L 156.4375 212.601562 L 151.671875 212.601562 C 151.550781 212.683594 151.40625 212.746094 151.246094 212.746094 L 98.53125 212.746094 C 98.113281 212.746094 97.769531 212.40625 97.769531 211.984375 C 97.769531 211.5625 98.113281 211.226562 98.53125 211.226562 L 148.730469 211.226562 L 147.363281 194.238281 L 143.617188 194.238281 C 143.375 194.238281 143.148438 194.125 143.007812 193.925781 C 142.859375 193.730469 142.824219 193.476562 142.894531 193.246094 L 155.3125 154.554688 L 75.800781 154.554688 C 75.378906 154.554688 75.039062 154.210938 75.039062 153.789062 C 75.039062 153.375 75.378906 153.03125 75.800781 153.03125 L 113.5625 153.03125 C 113.695312 149.125 115.414062 143.796875 117.417969 137.652344 C 119.902344 130.027344 122.722656 121.378906 122.722656 114.109375 L 122.722656 97.238281 L 101.824219 90.320312 L 78.316406 90.320312 C 77.898438 90.320312 77.558594 89.980469 77.558594 89.558594 C 77.558594 89.136719 77.898438 88.796875 78.316406 88.796875 L 101.699219 88.796875 C 101.753906 88.785156 101.804688 88.769531 101.863281 88.769531 L 123.015625 88.769531 L 123.015625 65.242188 C 123.015625 64.820312 123.359375 64.484375 123.777344 64.484375 C 124.199219 64.484375 124.535156 64.820312 124.535156 65.242188 L 124.535156 88.769531 L 131.476562 88.769531 C 131.75 88.769531 131.996094 88.910156 132.132812 89.140625 C 132.269531 89.378906 132.273438 89.664062 132.144531 89.898438 L 127.503906 98.175781 C 127.367188 98.421875 127.109375 98.5625 126.839844 98.5625 C 126.757812 98.5625 126.675781 98.554688 126.597656 98.527344 L 124.242188 97.742188 L 124.242188 114.109375 C 124.242188 121.621094 121.386719 130.390625 118.867188 138.125 C 116.988281 143.890625 115.226562 149.328125 115.089844 153.03125 L 161.292969 153.03125 L 165.210938 114.867188 L 162.585938 97.636719 C 162.578125 97.585938 162.570312 97.53125 162.578125 97.480469 L 164.726562 62.449219 L 24.273438 62.449219 C 23.578125 65.402344 20.628906 79.304688 24.230469 90.542969 L 26.640625 90.542969 C 26.859375 90.542969 27.070312 90.640625 27.21875 90.808594 C 27.359375 90.976562 27.425781 91.203125 27.394531 91.425781 C 27.382812 91.476562 26.515625 97.128906 26.515625 107.597656 C 26.515625 117.710938 31.226562 121.773438 31.273438 121.816406 C 31.441406 121.957031 31.546875 122.175781 31.546875 122.398438 L 31.546875 127.265625 L 108.824219 127.265625 C 109.242188 127.265625 109.585938 127.609375 109.585938 128.027344 C 109.585938 128.449219 109.242188 128.785156 108.824219 128.785156 L 30.933594 128.785156 C 30.929688 128.785156 30.921875 128.785156 30.917969 128.785156 C 30.300781 128.988281 26.320312 130.386719 25.605469 133.246094 C 24.921875 135.972656 25.320312 148.433594 25.621094 154.644531 C 25.636719 154.851562 25.554688 155.054688 25.414062 155.207031 C 25.273438 155.359375 25.074219 155.441406 24.863281 155.441406 L 18.476562 155.441406 C 16.835938 158.121094 6.554688 175.195312 3.652344 187.179688 C 0.925781 198.417969 1.984375 211.496094 2.386719 215.351562 Z M 196.625 609.6875 L 222.433594 570.976562 C 197.339844 507.558594 175.515625 477.148438 171.097656 471.332031 L 146.839844 536.316406 Z M 2.167969 186.824219 C 5.375 173.613281 16.917969 155.0625 17.40625 154.28125 C 17.542969 154.054688 17.792969 153.917969 18.050781 153.917969 L 24.066406 153.917969 C 23.90625 150.335938 23.316406 136.105469 24.125 132.878906 C 24.9375 129.648438 28.613281 128.003906 30.027344 127.480469 L 30.027344 122.738281 C 28.921875 121.664062 24.992188 117.164062 24.992188 107.597656 C 24.992188 99.265625 25.523438 94.035156 25.765625 92.066406 L 23.679688 92.066406 C 23.351562 92.066406 23.0625 91.855469 22.957031 91.550781 C 18.492188 78.453125 22.757812 62.179688 22.941406 61.492188 C 23.03125 61.160156 23.335938 60.929688 23.679688 60.929688 L 158.332031 60.929688 C 155.738281 51.371094 155.695312 46.25 158.210938 44.882812 C 163.023438 42.257812 171.128906 51.433594 173.351562 54.109375 C 174.195312 53.265625 176.082031 50.765625 177.832031 44.167969 C 179.210938 38.976562 186.855469 38.523438 194.949219 38.039062 C 203.15625 37.550781 212.457031 36.992188 215.351562 31.285156 C 215.507812 30.96875 215.867188 30.804688 216.214844 30.890625 C 216.554688 30.976562 216.792969 31.285156 216.789062 31.644531 L 216.109375 74.371094 C 216.050781 77.894531 214.476562 81.21875 211.789062 83.496094 C 209.101562 85.769531 205.5625 86.773438 202.078125 86.242188 L 191.46875 84.640625 L 191.46875 89.050781 C 191.46875 89.46875 191.132812 89.808594 190.710938 89.808594 C 190.289062 89.808594 189.949219 89.46875 189.949219 89.050781 L 189.949219 84.390625 L 185.503906 83.613281 C 185.09375 83.539062 184.8125 83.144531 184.886719 82.734375 C 184.960938 82.320312 185.34375 82.046875 185.765625 82.113281 L 190.835938 83.003906 C 190.84375 83.003906 190.84375 83.003906 190.84375 83.003906 L 202.304688 84.738281 C 205.355469 85.203125 208.449219 84.324219 210.804688 82.335938 C 213.15625 80.339844 214.542969 77.433594 214.589844 74.347656 L 215.230469 34.101562 C 211.054688 38.601562 202.605469 39.109375 195.039062 39.558594 C 187.511719 40.007812 180.398438 40.433594 179.300781 44.5625 C 176.765625 54.105469 173.882812 55.710938 173.558594 55.863281 C 173.238281 56.015625 172.859375 55.925781 172.640625 55.648438 C 170.203125 52.589844 162.476562 44.292969 158.941406 46.21875 C 157.9375 46.765625 156.738281 49.417969 159.910156 60.929688 L 165.53125 60.929688 C 165.742188 60.929688 165.941406 61.011719 166.089844 61.171875 C 166.230469 61.324219 166.304688 61.527344 166.296875 61.738281 L 164.101562 97.492188 L 166.214844 111.359375 L 180.605469 119.121094 L 202.96875 95.996094 C 203.261719 95.691406 203.742188 95.6875 204.046875 95.976562 C 204.347656 96.269531 204.355469 96.75 204.0625 97.054688 L 181.300781 120.597656 C 181.152344 120.75 180.953125 120.828125 180.75 120.828125 C 180.625 120.828125 180.503906 120.800781 180.390625 120.738281 L 166.507812 113.242188 L 166.730469 114.734375 C 166.742188 114.796875 166.742188 114.863281 166.738281 114.929688 L 162.738281 153.871094 C 162.695312 154.257812 162.371094 154.554688 161.980469 154.554688 L 156.910156 154.554688 L 144.664062 192.714844 L 148.0625 192.714844 C 148.460938 192.714844 148.789062 193.019531 148.820312 193.414062 L 150.246094 211.074219 L 157.457031 211.074219 L 202.804688 140.9375 C 203.03125 140.585938 203.503906 140.488281 203.855469 140.71875 C 204.210938 140.945312 204.308594 141.417969 204.082031 141.769531 L 141.90625 237.929688 L 122.347656 268.246094 L 153.296875 294.777344 C 153.613281 295.050781 153.652344 295.527344 153.375 295.851562 C 153.226562 296.023438 153.011719 296.113281 152.800781 296.113281 C 152.621094 296.113281 152.449219 296.050781 152.308594 295.929688 L 121.511719 269.535156 L 110.273438 286.953125 C 110.132812 287.167969 109.894531 287.300781 109.636719 287.300781 L 109.636719 287.523438 L 86.042969 287.523438 C 86.105469 287.675781 86.132812 287.84375 86.085938 288.011719 C 85.976562 288.417969 85.550781 288.652344 85.148438 288.542969 C 83.535156 288.105469 78.980469 287.234375 77.335938 288.484375 C 76.964844 288.773438 76.785156 289.160156 76.785156 289.699219 C 76.785156 293.394531 87.195312 297.476562 93.761719 299.179688 C 94.167969 299.285156 94.414062 299.699219 94.308594 300.105469 C 94.21875 300.449219 93.910156 300.675781 93.570312 300.675781 C 93.507812 300.675781 93.445312 300.667969 93.378906 300.652344 C 91.527344 300.167969 75.265625 295.777344 75.265625 289.699219 C 75.265625 288.820312 75.582031 288.085938 76.152344 287.523438 L 69.914062 287.523438 C 69.453125 287.523438 69.277344 287.628906 69.234375 287.660156 C 69.214844 287.675781 69.179688 287.707031 69.179688 287.847656 C 69.179688 290.90625 84.859375 304.957031 101.421875 304.957031 C 111.964844 304.957031 123.457031 302.511719 130.097656 300.410156 L 130.414062 301.414062 L 131.058594 301.601562 C 119.5 341.765625 101.289062 405.949219 96.976562 422.882812 C 87.128906 461.492188 100.882812 476.675781 104.636719 479.980469 L 141.097656 313.550781 L 142.585938 313.878906 L 105.976562 480.984375 L 105.996094 481 L 68.714844 622.128906 L 109.992188 637.605469 L 145.769531 534.738281 L 145.789062 534.773438 L 170 469.925781 L 170.15625 469.515625 C 170.367188 468.953125 191.730469 412.863281 213.6875 354.015625 C 234.214844 299 223.34375 259.550781 221.835938 254.652344 L 201.617188 254.652344 L 201.617188 254.554688 C 201.550781 254.523438 201.488281 254.496094 201.4375 254.441406 C 201.132812 254.152344 201.121094 253.675781 201.410156 253.371094 C 201.472656 253.296875 201.546875 253.21875 201.617188 253.144531 L 201.617188 253.128906 L 201.625 253.128906 C 211.546875 242.484375 227.796875 215.566406 227.960938 215.292969 C 228.183594 214.933594 228.648438 214.820312 229.007812 215.035156 C 229.367188 215.25 229.480469 215.71875 229.265625 216.082031 C 229.109375 216.34375 213.761719 241.765625 203.683594 253.128906 L 222.9375 253.128906 L 223.117188 253.644531 C 223.257812 254.054688 237.160156 295.457031 215.113281 354.554688 C 194.136719 410.769531 173.703125 464.46875 171.730469 469.652344 C 174.492188 473.183594 197.464844 503.640625 223.988281 570.789062 L 224.136719 571.15625 L 196.632812 612.410156 L 146.210938 538.097656 L 111.167969 638.839844 L 110.910156 639.578125 L 66.894531 623.070312 L 104.25 481.644531 C 101.171875 479.316406 84.765625 464.597656 95.496094 422.511719 C 99.78125 405.703125 117.71875 342.484375 129.285156 302.253906 C 122.417969 304.28125 111.496094 306.476562 101.421875 306.476562 C 84.824219 306.476562 67.652344 292.640625 67.652344 287.847656 C 67.652344 287.679688 67.679688 287.53125 67.710938 287.394531 L 7.390625 287.523438 C 7.191406 287.523438 6.996094 287.441406 6.855469 287.300781 C 6.714844 287.160156 6.628906 286.964844 6.628906 286.765625 L 6.628906 248.5625 C 6.628906 248.140625 6.96875 247.800781 7.390625 247.800781 L 11.664062 247.800781 L 11.664062 212.71875 C 9.5 213.289062 4.886719 215.667969 2.140625 217.238281 C 1.921875 217.367188 1.65625 217.371094 1.425781 217.261719 C 1.199219 217.144531 1.042969 216.929688 1.011719 216.675781 C 0.988281 216.519531 -1.121094 200.390625 2.167969 186.824219 Z M 195.40625 64.921875 C 195.066406 65.167969 194.992188 65.644531 195.234375 65.984375 C 198.496094 70.53125 205.128906 71.476562 205.414062 71.511719 C 205.445312 71.519531 205.480469 71.519531 205.515625 71.519531 C 205.886719 71.519531 206.21875 71.246094 206.265625 70.859375 C 206.324219 70.445312 206.035156 70.0625 205.617188 70.003906 C 205.554688 70 199.347656 69.105469 196.472656 65.09375 C 196.230469 64.753906 195.753906 64.675781 195.40625 64.921875 Z M 213.164062 65.488281 C 213.300781 65.265625 213.308594 64.980469 213.183594 64.742188 L 209.742188 58.1875 C 209.546875 57.820312 209.085938 57.671875 208.71875 57.867188 C 208.34375 58.066406 208.203125 58.523438 208.398438 58.898438 L 211.253906 64.332031 L 207.070312 64.332031 C 206.648438 64.332031 206.308594 64.675781 206.308594 65.09375 C 206.308594 65.515625 206.648438 65.859375 207.070312 65.859375 L 212.511719 65.859375 C 212.777344 65.859375 213.027344 65.714844 213.164062 65.488281 Z M 213.867188 45.136719 C 214.246094 45.304688 214.699219 45.136719 214.871094 44.746094 C 215.039062 44.363281 214.871094 43.917969 214.488281 43.742188 C 214.347656 43.679688 211.03125 42.253906 208.039062 44.621094 C 207.710938 44.878906 207.65625 45.359375 207.917969 45.6875 C 208.066406 45.878906 208.292969 45.976562 208.511719 45.976562 C 208.679688 45.976562 208.84375 45.925781 208.984375 45.816406 C 211.265625 44.011719 213.847656 45.121094 213.867188 45.136719 Z M 84.078125 257.5 L 101.171875 249.324219 L 64.75 249.324219 Z M 27.824219 247.800781 L 60.976562 247.800781 C 60.988281 247.800781 60.996094 247.800781 61.011719 247.800781 L 104.53125 247.800781 C 104.882812 247.800781 105.191406 248.046875 105.273438 248.394531 C 105.34375 248.742188 105.175781 249.09375 104.855469 249.246094 L 84.421875 259.019531 C 84.320312 259.074219 84.207031 259.09375 84.09375 259.09375 C 83.992188 259.09375 83.890625 259.074219 83.796875 259.035156 L 60.839844 249.324219 L 27.824219 249.324219 C 27.402344 249.324219 27.0625 248.984375 27.0625 248.5625 C 27.0625 248.140625 27.402344 247.800781 27.824219 247.800781 Z M 23.324219 204.386719 L 49.425781 193.050781 L 14.566406 193.050781 Z M 13.019531 191.53125 L 119.929688 191.53125 C 120.347656 191.53125 120.691406 191.871094 120.691406 192.292969 C 120.691406 192.714844 120.347656 193.050781 119.929688 193.050781 L 53.007812 193.050781 C 52.933594 193.152344 52.828125 193.234375 52.707031 193.289062 L 23.390625 206.019531 C 23.292969 206.066406 23.1875 206.082031 23.089844 206.082031 C 22.859375 206.082031 22.632812 205.976562 22.484375 205.785156 L 12.414062 192.757812 C 12.238281 192.53125 12.203125 192.214844 12.335938 191.957031 C 12.460938 191.695312 12.726562 191.53125 13.019531 191.53125 " fill-opacity="1" fill-rule="nonzero"/></g><path fill="#100f0d" d="M 211.957031 51.542969 C 212.875 51.542969 213.621094 52.292969 213.621094 53.210938 C 213.621094 54.132812 212.875 54.878906 211.957031 54.878906 C 211.039062 54.878906 210.289062 54.132812 210.289062 53.210938 C 210.289062 52.292969 211.039062 51.542969 211.957031 51.542969 Z M 195.964844 53.546875 C 195.964844 54.464844 196.707031 55.210938 197.628906 55.210938 C 198.546875 55.210938 199.296875 54.464844 199.296875 53.546875 C 199.296875 52.628906 198.546875 51.878906 197.628906 51.878906 C 196.707031 51.878906 195.964844 52.628906 195.964844 53.546875 " fill-opacity="1" fill-rule="nonzero"/><g clip-path="url(#d2d15e6f2b)"><path fill="#100f0d" d="M 363.039062 30.816406 C 363.039062 30.816406 363.667969 17.617188 353.582031 9.816406 C 343.496094 2.011719 330.617188 -3.253906 318.628906 4.929688 C 306.632812 13.117188 303.847656 18.636719 304.859375 32.71875 C 305.875 46.804688 308.03125 64.058594 308.03125 64.058594 Z M 276.308594 548.757812 L 262.101562 571.59375 L 279.355469 610.675781 L 318.945312 623.367188 C 313.359375 609.148438 297.625 602.046875 297.625 602.046875 C 291.539062 591.386719 297.117188 581.238281 297.117188 581.238281 Z M 398.628906 605.089844 C 398.628906 605.089844 399.640625 618.289062 412.835938 627.933594 C 426.035156 637.574219 445.324219 656.351562 442.785156 670.054688 L 371.726562 637.574219 L 363.097656 603.0625 L 398.628906 605.089844 " fill-opacity="1" fill-rule="nonzero"/></g><path fill="#fe9545" d="M 327.316406 86.640625 L 332.136719 96.792969 L 334.675781 87.660156 L 339.246094 82.328125 C 339.246094 82.328125 344.574219 87.660156 357.769531 91.972656 C 370.816406 96.238281 379.847656 102.125 384.925781 117.601562 C 389.996094 133.082031 400.402344 163.535156 406.746094 179.523438 C 413.089844 195.507812 408.777344 215.050781 396.089844 217.589844 C 383.398438 220.128906 377.058594 212.765625 377.058594 212.765625 C 381.625 228.5 377.058594 236.617188 370.882812 236.617188 C 364.707031 236.617188 282.65625 236.617188 276.144531 236.617188 C 269.625 236.617188 266.414062 229.765625 266.414062 229.765625 C 258.292969 230.273438 243.320312 225.453125 241.292969 208.453125 C 239.257812 191.449219 238.246094 181.550781 235.707031 152.878906 C 233.167969 124.199219 246.871094 105.421875 265.90625 96.539062 C 284.941406 87.660156 295.089844 83.34375 295.089844 83.34375 L 301.691406 74.71875 L 327.316406 86.640625 " fill-opacity="1" fill-rule="nonzero"/><g clip-path="url(#bc1564ab36)"><path fill="#ffffff" d="M 307.089844 177.734375 L 307.101562 177.746094 L 337.722656 177.917969 L 340.261719 168.949219 C 340.261719 168.949219 333.828125 155.414062 323.679688 155.078125 C 314.320312 154.765625 297.085938 160.480469 294.449219 161.375 L 293.738281 160.550781 L 283.761719 173.574219 L 301.179688 189.589844 Z M 353.285156 188.910156 C 359.378906 193.308594 371.21875 188.910156 376.296875 186.203125 C 381.371094 183.5 389.152344 182.824219 389.488281 179.777344 L 341.441406 179.097656 C 341.441406 179.097656 347.199219 184.511719 353.285156 188.910156 Z M 331.464844 98.570312 L 335.355469 87.40625 L 337.085938 80.996094 C 337.085938 80.996094 344.253906 81.503906 348.316406 73.386719 C 352.378906 65.261719 357.011719 54.792969 359.421875 49.214844 C 361.828125 43.628906 362.082031 31.828125 362.082031 31.828125 C 362.082031 31.828125 350.28125 32.335938 340.007812 29.292969 C 329.726562 26.25 325.667969 28.660156 323.894531 34.75 C 322.117188 40.835938 321.609375 46.675781 318.816406 46.167969 C 316.023438 45.660156 315.648438 38.425781 311.203125 40.207031 C 306.761719 41.980469 312.472656 53.148438 311.328125 55.8125 C 310.191406 58.476562 308.28125 60.125 308.28125 60.125 L 304.222656 76.070312 L 325.03125 87.066406 Z M 408.777344 612.195312 L 361.410156 612.195312 L 334.335938 537.761719 L 297.796875 588.515625 L 270.726562 552.644531 L 315.394531 477.527344 C 315.394531 477.527344 253.136719 294.140625 276.144531 234.59375 L 370.882812 234.59375 C 370.882812 234.59375 393.214844 292.113281 406.070312 361.136719 C 418.929688 430.160156 380.359375 481.59375 380.359375 481.59375 L 408.777344 612.195312 " fill-opacity="1" fill-rule="nonzero"/></g><g clip-path="url(#b8de01ebb6)"><path fill="#100f0d" d="M 304.152344 77.058594 C 304.699219 77.1875 305.246094 76.855469 305.382812 76.3125 L 309.199219 60.65625 C 309.785156 60.09375 311.28125 58.5 312.261719 56.210938 C 312.828125 54.890625 312.28125 52.679688 311.59375 49.875 C 310.769531 46.519531 309.636719 41.925781 311.582031 41.148438 C 313.230469 40.484375 313.980469 41.445312 315.300781 43.789062 C 316.152344 45.304688 317.039062 46.875 318.632812 47.164062 C 321.699219 47.742188 322.613281 43.980469 323.769531 39.234375 C 324.101562 37.902344 324.445312 36.476562 324.863281 35.03125 C 325.628906 32.414062 326.757812 30.777344 328.414062 29.871094 C 330.773438 28.582031 334.476562 28.710938 339.714844 30.265625 C 348.335938 32.820312 357.851562 32.917969 361.03125 32.875 C 360.902344 35.867188 360.378906 44.433594 358.488281 48.808594 C 357.027344 52.1875 351.921875 63.910156 347.410156 72.925781 C 343.722656 80.308594 337.414062 79.988281 337.15625 79.984375 C 337.066406 79.972656 336.972656 80 336.882812 80.023438 C 334.082031 79.847656 330.179688 78.96875 326.726562 75.867188 C 322.996094 72.507812 318.332031 67.597656 318.28125 67.546875 C 317.898438 67.136719 317.257812 67.121094 316.847656 67.511719 C 316.445312 67.890625 316.429688 68.539062 316.8125 68.945312 C 316.859375 68.992188 321.578125 73.960938 325.371094 77.375 C 328.96875 80.613281 332.996094 81.699219 336.054688 81.996094 L 336.03125 83.664062 C 336.023438 84.226562 336.464844 84.691406 337.03125 84.695312 C 337.03125 84.695312 337.042969 84.695312 337.042969 84.695312 C 337.597656 84.695312 338.050781 84.253906 338.0625 83.699219 L 338.089844 81.988281 C 340.386719 81.8125 345.820312 80.648438 349.226562 73.839844 C 353.761719 64.769531 358.886719 53.003906 360.351562 49.617188 C 362.8125 43.914062 363.089844 32.339844 363.097656 31.851562 C 363.109375 31.570312 362.996094 31.300781 362.792969 31.105469 C 362.59375 30.90625 362.316406 30.78125 362.039062 30.816406 C 361.925781 30.820312 350.28125 31.277344 340.292969 28.320312 C 334.429688 26.578125 330.34375 26.507812 327.441406 28.09375 C 325.308594 29.25 323.832031 31.335938 322.917969 34.464844 C 322.488281 35.9375 322.132812 37.398438 321.796875 38.753906 C 321.003906 42.015625 320.167969 45.371094 319 45.171875 C 318.335938 45.050781 317.695312 43.902344 317.070312 42.796875 C 315.964844 40.835938 314.300781 37.871094 310.828125 39.261719 C 307.242188 40.695312 308.5625 46.054688 309.625 50.355469 C 310.101562 52.300781 310.691406 54.71875 310.394531 55.414062 C 309.367188 57.8125 307.636719 59.34375 307.621094 59.359375 C 307.464844 59.492188 307.351562 59.683594 307.296875 59.882812 L 303.410156 75.828125 C 303.273438 76.371094 303.609375 76.921875 304.152344 77.058594 Z M 333.222656 537.582031 L 315.101562 480.003906 L 271.949219 552.578125 L 297.777344 586.800781 Z M 409.769531 611.980469 C 409.835938 612.28125 409.757812 612.59375 409.570312 612.832031 C 409.375 613.074219 409.085938 613.214844 408.777344 613.214844 L 361.410156 613.214844 C 360.984375 613.214844 360.601562 612.945312 360.457031 612.546875 L 334.039062 539.910156 L 298.621094 589.105469 C 298.433594 589.367188 298.132812 589.523438 297.808594 589.527344 C 297.519531 589.566406 297.183594 589.382812 296.988281 589.125 L 269.917969 553.257812 C 269.667969 552.929688 269.640625 552.480469 269.859375 552.125 L 314.277344 477.414062 C 312.644531 472.542969 298.046875 428.585938 286.148438 378.628906 C 269.265625 307.703125 265.578125 259.113281 275.195312 234.226562 C 275.394531 233.703125 275.988281 233.4375 276.503906 233.644531 C 277.027344 233.84375 277.292969 234.4375 277.085938 234.957031 C 254.472656 293.488281 315.734375 475.378906 316.351562 477.203125 C 316.351562 477.210938 316.351562 477.214844 316.351562 477.214844 C 316.351562 477.222656 316.359375 477.222656 316.359375 477.226562 L 335.308594 537.445312 L 362.121094 611.183594 L 407.523438 611.183594 L 379.367188 481.808594 C 379.367188 481.804688 379.367188 481.804688 379.367188 481.796875 C 379.359375 481.792969 379.359375 481.792969 379.359375 481.78125 C 379.019531 480.039062 345.839844 307.210938 344.332031 296.652344 C 342.757812 285.652344 347.425781 280.316406 347.625 280.097656 C 348.007812 279.679688 348.644531 279.648438 349.058594 280.019531 C 349.472656 280.398438 349.511719 281.035156 349.140625 281.453125 C 349.0625 281.539062 344.917969 286.410156 346.34375 296.367188 C 347.742188 306.203125 376.886719 458.136719 380.898438 479.027344 C 387.554688 469.085938 416.324219 421.734375 405.074219 361.320312 C 392.378906 293.191406 370.160156 235.535156 369.9375 234.957031 C 369.734375 234.4375 369.992188 233.847656 370.515625 233.644531 C 371.039062 233.445312 371.625 233.703125 371.824219 234.21875 C 372.050781 234.796875 394.339844 292.625 407.070312 360.953125 C 419.28125 426.515625 384.914062 476.945312 381.441406 481.820312 Z M 344.109375 180.152344 C 346.304688 182.101562 350.039062 185.316406 353.882812 188.089844 C 359.097656 191.855469 369.855469 188.488281 375.820312 185.308594 C 377.824219 184.242188 380.238281 183.472656 382.375 182.792969 C 384.292969 182.183594 386.390625 181.519531 387.558594 180.765625 Z M 341.457031 178.085938 L 389.507812 178.757812 C 389.792969 178.765625 390.0625 178.890625 390.25 179.105469 C 390.445312 179.320312 390.53125 179.605469 390.5 179.886719 C 390.21875 182.4375 386.871094 183.5 382.988281 184.726562 C 380.835938 185.410156 378.617188 186.117188 376.773438 187.097656 C 373.332031 188.933594 367.339844 191.28125 361.742188 191.691406 L 377.851562 212.140625 C 378.203125 212.574219 378.125 213.21875 377.683594 213.5625 C 377.5 213.707031 377.273438 213.777344 377.058594 213.777344 C 376.757812 213.777344 376.460938 213.648438 376.261719 213.394531 L 359.597656 192.246094 C 359.472656 192.097656 359.425781 191.917969 359.402344 191.734375 C 356.890625 191.644531 354.550781 191.078125 352.691406 189.734375 C 346.621094 185.347656 340.804688 179.890625 340.746094 179.835938 C 340.445312 179.550781 340.347656 179.105469 340.503906 178.722656 C 340.660156 178.332031 341.125 178.101562 341.457031 178.085938 Z M 323.648438 156.089844 C 315.359375 155.816406 300.359375 160.5 295.777344 162.003906 L 307.59375 176.734375 L 336.957031 176.894531 L 339.175781 169.050781 C 338.121094 167.023438 332.195312 156.378906 323.648438 156.089844 Z M 301.042969 186.710938 L 305.882812 177.855469 L 295.367188 164.738281 L 294.003906 163.035156 L 283.761719 173.574219 Z M 266.585938 230.769531 C 266.527344 230.78125 266.472656 230.785156 266.414062 230.785156 C 265.925781 230.785156 265.496094 230.4375 265.414062 229.941406 C 265.320312 229.390625 265.691406 228.867188 266.238281 228.769531 C 266.40625 228.738281 283.066406 225.773438 288.84375 217.433594 C 294.09375 209.84375 303.738281 196.566406 306.203125 193.179688 L 301.425781 189.546875 C 301.410156 189.550781 301.398438 189.5625 301.382812 189.566406 C 301.316406 189.578125 301.25 189.589844 301.179688 189.589844 C 300.957031 189.589844 300.730469 189.515625 300.550781 189.375 L 282.441406 175.140625 L 257.003906 210.820312 C 256.675781 211.277344 256.046875 211.386719 255.589844 211.054688 C 255.128906 210.726562 255.027344 210.097656 255.351562 209.636719 L 272.066406 186.195312 L 265.324219 140 C 265.242188 139.445312 265.625 138.925781 266.179688 138.847656 C 266.734375 138.761719 267.253906 139.148438 267.335938 139.703125 L 273.769531 183.804688 L 281.40625 173.097656 C 281.421875 173.074219 281.449219 173.0625 281.464844 173.039062 C 281.480469 173.023438 281.484375 172.996094 281.5 172.980469 L 293.335938 160.808594 L 293.34375 160.796875 C 293.457031 160.679688 293.59375 160.597656 293.738281 160.550781 C 294.542969 160.269531 313.523438 153.730469 323.71875 154.0625 C 334.363281 154.414062 340.902344 167.933594 341.175781 168.511719 C 341.28125 168.738281 341.300781 168.984375 341.238281 169.222656 L 338.699219 178.195312 C 338.574219 178.628906 338.175781 178.933594 337.722656 178.933594 C 337.722656 178.933594 337.71875 178.933594 337.71875 178.933594 L 307.699219 178.765625 L 302.675781 187.949219 L 308.222656 192.167969 C 308.664062 192.5 308.753906 193.125 308.429688 193.566406 C 308.308594 193.734375 296.527344 209.902344 290.507812 218.585938 C 284.25 227.632812 267.300781 230.644531 266.585938 230.769531 Z M 342.96875 95.527344 C 343.011719 95.527344 343.058594 95.519531 343.101562 95.515625 C 343.402344 95.476562 343.671875 95.300781 343.835938 95.039062 L 347.046875 89.796875 C 347.339844 89.316406 347.195312 88.691406 346.714844 88.398438 C 346.234375 88.109375 345.609375 88.253906 345.316406 88.734375 L 342.75 92.921875 L 336.550781 87.171875 C 336.144531 86.789062 335.496094 86.808594 335.117188 87.222656 C 334.734375 87.632812 334.761719 88.273438 335.171875 88.65625 L 342.277344 95.257812 C 342.464844 95.429688 342.714844 95.527344 342.96875 95.527344 Z M 296.460938 88.125 L 315.238281 98.449219 C 315.394531 98.527344 315.5625 98.570312 315.726562 98.570312 C 316.003906 98.570312 316.273438 98.457031 316.472656 98.25 L 325.441406 88.605469 C 325.820312 88.195312 325.796875 87.554688 325.386719 87.171875 C 324.976562 86.792969 324.335938 86.808594 323.953125 87.222656 L 315.523438 96.285156 L 297.4375 86.34375 C 296.945312 86.074219 296.332031 86.257812 296.0625 86.742188 C 295.792969 87.234375 295.96875 87.855469 296.460938 88.125 Z M 336.367188 193.308594 C 337.117188 193.308594 337.722656 192.707031 337.722656 191.957031 C 337.722656 191.210938 337.117188 190.601562 336.367188 190.601562 C 335.625 190.601562 335.015625 191.210938 335.015625 191.957031 C 335.015625 192.707031 335.625 193.308594 336.367188 193.308594 Z M 336.367188 195.339844 C 334.503906 195.339844 332.984375 193.820312 332.984375 191.957031 C 332.984375 190.089844 334.503906 188.578125 336.367188 188.578125 C 338.234375 188.578125 339.753906 190.089844 339.753906 191.957031 C 339.753906 193.820312 338.234375 195.339844 336.367188 195.339844 Z M 337.042969 227.488281 C 337.042969 228.230469 337.652344 228.839844 338.402344 228.839844 C 339.144531 228.839844 339.753906 228.230469 339.753906 227.488281 C 339.753906 226.738281 339.144531 226.132812 338.402344 226.132812 C 337.652344 226.132812 337.042969 226.738281 337.042969 227.488281 Z M 335.015625 227.488281 C 335.015625 225.621094 336.535156 224.101562 338.402344 224.101562 C 340.265625 224.101562 341.78125 225.621094 341.78125 227.488281 C 341.78125 229.351562 340.265625 230.867188 338.402344 230.867188 C 336.535156 230.867188 335.015625 229.351562 335.015625 227.488281 Z M 331.289062 142.554688 C 331.289062 143.304688 331.898438 143.914062 332.648438 143.914062 C 333.394531 143.914062 334.003906 143.304688 334.003906 142.554688 C 334.003906 141.8125 333.394531 141.203125 332.648438 141.203125 C 331.898438 141.203125 331.289062 141.8125 331.289062 142.554688 Z M 329.265625 142.554688 C 329.265625 140.691406 330.777344 139.175781 332.648438 139.175781 C 334.515625 139.175781 336.03125 140.691406 336.03125 142.554688 C 336.03125 144.421875 334.515625 145.941406 332.648438 145.941406 C 330.777344 145.941406 329.265625 144.421875 329.265625 142.554688 Z M 332.308594 114.8125 C 333.054688 114.8125 333.664062 114.203125 333.664062 113.460938 C 333.664062 112.710938 333.054688 112.101562 332.308594 112.101562 C 331.558594 112.101562 330.957031 112.710938 330.957031 113.460938 C 330.957031 114.203125 331.558594 114.8125 332.308594 114.8125 Z M 332.308594 116.839844 C 330.445312 116.839844 328.925781 115.324219 328.925781 113.460938 C 328.925781 111.597656 330.445312 110.074219 332.308594 110.074219 C 334.175781 110.074219 335.691406 111.597656 335.691406 113.460938 C 335.691406 115.324219 334.175781 116.839844 332.308594 116.839844 Z M 332.796875 168.847656 C 332.996094 169.105469 333.289062 169.238281 333.59375 169.238281 C 333.8125 169.238281 334.03125 169.167969 334.21875 169.023438 C 334.660156 168.679688 334.734375 168.039062 334.390625 167.59375 C 330.984375 163.234375 326.074219 159.691406 325.863281 159.546875 C 325.410156 159.21875 324.773438 159.320312 324.449219 159.777344 C 324.121094 160.238281 324.222656 160.867188 324.683594 161.195312 C 324.730469 161.230469 329.566406 164.714844 332.796875 168.847656 Z M 329.941406 174.714844 C 330.117188 175.089844 330.480469 175.308594 330.871094 175.308594 C 331.011719 175.308594 331.152344 175.28125 331.285156 175.222656 C 331.796875 174.992188 332.023438 174.386719 331.792969 173.882812 C 329.988281 169.882812 322.492188 164.210938 322.179688 163.972656 C 321.726562 163.632812 321.089844 163.730469 320.757812 164.171875 C 320.417969 164.621094 320.507812 165.253906 320.957031 165.59375 C 321.03125 165.648438 328.347656 171.191406 329.941406 174.714844 Z M 310.105469 168.113281 L 322.289062 175.890625 C 322.457031 176 322.644531 176.054688 322.832031 176.054688 C 323.167969 176.054688 323.496094 175.886719 323.691406 175.585938 C 323.992188 175.117188 323.851562 174.484375 323.382812 174.183594 L 311.199219 166.402344 C 310.730469 166.101562 310.101562 166.238281 309.796875 166.710938 C 309.496094 167.1875 309.636719 167.8125 310.105469 168.113281 Z M 329.539062 69.914062 C 329.671875 70.054688 332.785156 73.300781 337.378906 74.109375 C 337.4375 74.117188 337.496094 74.125 337.554688 74.125 C 338.039062 74.125 338.464844 73.777344 338.550781 73.285156 C 338.648438 72.734375 338.28125 72.207031 337.726562 72.113281 C 333.8125 71.417969 331.042969 68.550781 331.015625 68.519531 C 330.628906 68.113281 329.988281 68.097656 329.582031 68.480469 C 329.171875 68.867188 329.15625 69.507812 329.539062 69.914062 Z M 348.71875 53.570312 C 348.886719 53.570312 349.054688 53.527344 349.210938 53.445312 C 352.707031 51.519531 354.5 53.175781 354.59375 53.265625 C 354.988281 53.667969 355.625 53.671875 356.023438 53.285156 C 356.429688 52.894531 356.4375 52.253906 356.050781 51.847656 C 355.933594 51.730469 353.171875 48.949219 348.234375 51.667969 C 347.738281 51.9375 347.558594 52.550781 347.828125 53.039062 C 348.011719 53.378906 348.363281 53.570312 348.71875 53.570312 Z M 330.222656 47.441406 C 329.691406 47.613281 329.398438 48.179688 329.566406 48.710938 C 329.734375 49.246094 330.300781 49.542969 330.839844 49.375 C 330.890625 49.359375 335.828125 47.867188 338.636719 51.179688 C 338.839844 51.417969 339.128906 51.535156 339.414062 51.535156 C 339.648438 51.535156 339.878906 51.460938 340.074219 51.300781 C 340.5 50.933594 340.550781 50.296875 340.191406 49.867188 C 336.492188 45.511719 330.476562 47.359375 330.222656 47.441406 Z M 339.582031 67.5 L 343.085938 68.726562 L 343.308594 60.140625 C 343.316406 59.578125 343.824219 59.160156 344.347656 59.152344 C 344.90625 59.164062 345.351562 59.632812 345.335938 60.195312 L 345.082031 70.171875 C 345.074219 70.5 344.90625 70.796875 344.644531 70.988281 C 344.472656 71.101562 344.273438 71.164062 344.066406 71.164062 C 343.953125 71.164062 343.839844 71.144531 343.734375 71.105469 L 338.90625 69.414062 C 338.378906 69.230469 338.097656 68.648438 338.289062 68.117188 C 338.472656 67.589844 339.054688 67.308594 339.582031 67.5 " fill-opacity="1" fill-rule="nonzero"/></g><g clip-path="url(#76b258aa61)"><path fill="#100f0d" d="M 299.894531 175.535156 C 298.640625 175.542969 297.625 176.566406 297.625 177.828125 C 297.625 179.089844 298.648438 180.113281 299.917969 180.113281 L 434.152344 180.113281 L 473.402344 110.242188 L 362.589844 110.242188 L 330.449219 175.546875 C 330.449219 175.40625 307.328125 175.503906 299.894531 175.535156 Z M 350.394531 56.570312 C 349.714844 56.570312 349.167969 57.121094 349.167969 57.796875 C 349.167969 58.476562 349.714844 59.023438 350.394531 59.023438 C 351.070312 59.023438 351.621094 58.476562 351.621094 57.796875 C 351.621094 57.121094 351.070312 56.570312 350.394531 56.570312 Z M 334.257812 54.964844 C 334.257812 55.644531 333.707031 56.1875 333.027344 56.1875 C 332.351562 56.1875 331.804688 55.644531 331.804688 54.964844 C 331.804688 54.285156 332.351562 53.734375 333.027344 53.734375 C 333.707031 53.734375 334.257812 54.285156 334.257812 54.964844 " fill-opacity="1" fill-rule="nonzero"/></g></svg>